<svg width="1380" height="1380" viewBox="0 0 1380 1380" fill="none" xmlns="http://www.w3.org/2000/svg">
<circle cx="690" cy="690" r="690" fill="#00060C"/>
<path d="M972.237 278.969L1013.11 305.014C1017.94 308.094 1018.7 314.848 1014.67 318.927L950.236 384.202C947.429 387.046 943.083 387.698 939.564 385.804L913 371.5L871.249 355.479C870.421 355.161 869.55 354.968 868.666 354.905L822.315 351.594C821.443 351.532 820.567 351.597 819.713 351.787L766.037 363.768C765.348 363.922 764.68 364.157 764.045 364.467L720.821 385.599C720.275 385.866 719.758 386.187 719.277 386.558L685.69 412.467C685.231 412.822 684.807 413.219 684.425 413.655L649.881 452.996C649.297 453.662 648.814 454.41 648.448 455.216L624.5 508L622.119 515L779.58 492.419C781.477 492.147 783.411 492.487 785.101 493.391L883.5 546L832.093 650.737C830.783 653.405 828.241 655.254 825.299 655.679L602.214 687.886C597.786 688.526 594.5 692.32 594.5 696.794V740L777.515 711.957C779.452 711.661 781.433 712.004 783.157 712.936L879.5 765L832.052 869.482C830.775 872.294 828.144 874.255 825.084 874.676L610.219 904.232C605.178 904.925 601.714 909.656 602.575 914.671L609.283 953.736C609.427 954.574 609.689 955.388 610.061 956.153L636.751 1010.96C637.246 1011.98 637.928 1012.89 638.761 1013.66L661.5 1034.5L746.787 1025.13C747.592 1025.04 748.381 1024.85 749.134 1024.55L800.761 1003.99C801.582 1003.67 802.351 1003.22 803.043 1002.67L832.305 979.333C836.939 975.637 836.798 968.548 832.019 965.041L809.144 948.25C803.141 943.843 804.782 934.468 811.925 932.362L950.5 891.5L1003.84 911.558C1007.01 912.75 1009.24 915.618 1009.61 918.982L1024.8 1054.84C1025.57 1061.65 1018.74 1066.78 1012.41 1064.15L1000 1059L957.781 1110.06C957.263 1110.68 956.662 1111.24 955.996 1111.7L910.029 1143.78C909.346 1144.26 908.601 1144.64 907.814 1144.91L853.106 1163.79C852.702 1163.93 852.29 1164.04 851.871 1164.12L772.909 1179.33C772.305 1179.44 771.69 1179.5 771.075 1179.49L705.414 1178.52C704.477 1178.51 703.548 1178.35 702.661 1178.05L639.832 1156.78C639.279 1156.59 638.745 1156.35 638.238 1156.06L578 1121.5L509.785 1090.09C508.934 1089.7 508.149 1089.18 507.458 1088.54L459.708 1044.65C459.237 1044.22 458.814 1043.74 458.446 1043.21L423.536 993.759C423.18 993.254 422.876 992.714 422.631 992.147L397 933L353.5 939.5L258.016 888.76C253.6 886.413 251.944 880.917 254.328 876.521L307.5 778.5L374.5 762.5V719.171L351.5 722L258.348 671.735C254.002 669.39 252.357 663.981 254.662 659.613L307.5 559.5L382 545L404 463L433.081 393.995C433.359 393.334 433.716 392.709 434.143 392.132L494.414 310.791C494.803 310.265 495.249 309.784 495.743 309.354L562.465 251.399C563.151 250.803 563.924 250.315 564.756 249.95L631.152 220.871C631.716 220.624 632.304 220.436 632.906 220.309L723.185 201.277C724.057 201.093 724.951 201.04 725.839 201.119L840.275 211.302C841.736 211.432 843.143 211.917 844.374 212.715L906.5 253L970.687 278.181C971.228 278.393 971.747 278.657 972.237 278.969Z" fill="url(#paint0_linear_293_45)"/>
<path d="M906.5 253L970.687 278.181C971.228 278.393 971.747 278.657 972.237 278.969L1013.11 305.014C1017.94 308.094 1018.7 314.848 1014.67 318.927L950.236 384.202C947.429 387.046 943.083 387.698 939.564 385.804L913 371.5L871.249 355.479C870.421 355.161 869.55 354.968 868.666 354.905L822.315 351.594C821.443 351.532 820.567 351.597 819.713 351.787L766.037 363.768C765.348 363.922 764.68 364.157 764.045 364.467L720.821 385.599C720.275 385.866 719.758 386.187 719.277 386.558L685.69 412.467C685.231 412.822 684.807 413.219 684.425 413.655L649.881 452.996C649.297 453.662 648.814 454.41 648.448 455.216L624.5 508L622.119 515M906.5 253L819.187 258.457C818.73 258.486 818.275 258.549 817.827 258.647L728.054 278.27C727.354 278.423 726.674 278.659 726.03 278.973L646.278 317.877C645.431 318.29 644.655 318.833 643.976 319.487L575.838 385.192C575.282 385.729 574.797 386.334 574.395 386.994L523.599 470.516C523.201 471.169 522.889 471.871 522.669 472.603L485 598M906.5 253L844.374 212.715C843.143 211.917 841.736 211.432 840.275 211.302L725.839 201.119C724.951 201.04 724.057 201.093 723.185 201.277L632.906 220.309C632.304 220.436 631.716 220.624 631.152 220.871L564.756 249.95C563.924 250.315 563.151 250.803 562.465 251.399L495.743 309.354C495.249 309.784 494.803 310.265 494.414 310.791L434.143 392.132C433.716 392.709 433.359 393.334 433.081 393.995L404 463L382 545M485 598L382 545M485 598L406 613.5M382 545L307.5 559.5M883.5 546L615.764 586.232C609.862 587.119 604.747 582.12 605.499 576.198L607.885 557.403C607.962 556.803 608.098 556.211 608.293 555.638L622.119 515M883.5 546L785.101 493.391C783.411 492.487 781.477 492.147 779.58 492.419L622.119 515M883.5 546L832.093 650.737C830.783 653.404 828.241 655.254 825.299 655.679L602.214 687.886C597.786 688.526 594.5 692.32 594.5 696.794V740M594.5 740L777.515 711.957C779.452 711.661 781.433 712.004 783.157 712.936L879.5 765M594.5 740V795.131C594.5 800.605 599.346 804.811 604.766 804.041L879.5 765M879.5 765L832.052 869.482C830.775 872.294 828.144 874.255 825.084 874.676L610.219 904.232C605.178 904.925 601.714 909.656 602.575 914.671L609.283 953.736C609.427 954.574 609.689 955.388 610.061 956.153L636.751 1010.96C637.246 1011.98 637.928 1012.89 638.761 1013.66L661.5 1034.5M661.5 1034.5L746.787 1025.13C747.592 1025.04 748.381 1024.85 749.134 1024.55L800.761 1003.99C801.582 1003.67 802.351 1003.22 803.043 1002.67L832.305 979.333C836.939 975.637 836.798 968.548 832.019 965.041L809.144 948.25C803.141 943.843 804.782 934.468 811.925 932.362L950.5 891.5M661.5 1034.5L713.419 1076.8C714.777 1077.91 716.428 1078.6 718.169 1078.78L781.046 1085.35C782.009 1085.45 782.982 1085.39 783.927 1085.18L850.449 1070.45C851.798 1070.16 853.06 1069.55 854.138 1068.69L887.492 1041.91C887.83 1041.64 888.148 1041.34 888.444 1041.02L910.475 1017.36C913.165 1014.47 917.424 1013.67 920.979 1015.39L975 1041.5M1000 1059L957.781 1110.06C957.263 1110.68 956.662 1111.24 955.996 1111.7L910.029 1143.78C909.346 1144.26 908.601 1144.64 907.814 1144.91L853.106 1163.79C852.702 1163.93 852.29 1164.04 851.871 1164.12L772.909 1179.33C772.304 1179.44 771.69 1179.5 771.075 1179.49L705.414 1178.52C704.477 1178.51 703.548 1178.35 702.661 1178.05L639.832 1156.78C639.279 1156.59 638.745 1156.35 638.238 1156.06L578 1121.5M1000 1059L1012.41 1064.15C1018.74 1066.78 1025.57 1061.65 1024.8 1054.84L1009.61 918.982C1009.24 915.618 1007.01 912.75 1003.84 911.558L950.5 891.5M1000 1059L975 1041.5M578 1121.5L509.785 1090.09C508.934 1089.7 508.149 1089.18 507.458 1088.54L459.708 1044.65C459.237 1044.22 458.814 1043.74 458.446 1043.21L423.536 993.759C423.18 993.254 422.876 992.714 422.631 992.147L397 933M578 1121.5L529.007 1053.21C528.67 1052.74 528.379 1052.24 528.138 1051.71L498.871 987.809C498.624 987.271 498.431 986.71 498.295 986.134L484.876 929.428C483.811 924.928 479.509 921.967 474.925 922.58L397 933M397 933L353.5 939.5M353.5 939.5L258.016 888.76C253.6 886.413 251.944 880.916 254.328 876.521L307.5 778.5M353.5 939.5L406 832.5M307.5 778.5L406 832.5M307.5 778.5L374.5 762.5M406 832.5L476.5 823M374.5 762.5L476.5 823M374.5 762.5V719.171M476.5 823L477.412 716.763C477.459 711.326 472.71 707.089 467.313 707.753L374.5 719.171M351.5 722L258.348 671.735C254.002 669.39 252.357 663.981 254.662 659.613L307.5 559.5M351.5 722L406 613.5M351.5 722L374.5 719.171M307.5 559.5L406 613.5M950.5 891.5L975 1041.5" stroke="black" stroke-width="24"/>
<defs>
<linearGradient id="paint0_linear_293_45" x1="636.25" y1="201" x2="636.25" y2="1179.5" gradientUnits="userSpaceOnUse">
<stop stop-color="#03182C"/>
<stop offset="1" stop-color="#0085FF"/>
</linearGradient>
</defs>
</svg>
